<?xml version="1.0" standalone="no"?>
<!DOCTYPE svg PUBLIC "-//W3C//DTD SVG 20010904//EN"
 "http://www.w3.org/TR/2001/REC-SVG-20010904/DTD/svg10.dtd">
<svg version="1.0" xmlns="http://www.w3.org/2000/svg"
 width="48.000000pt" height="48.000000pt" viewBox="0 0 48.000000 48.000000"
 preserveAspectRatio="xMidYMid meet">

<g transform="translate(0.000000,48.000000) scale(0.100000,-0.100000)"
fill="#000000" stroke="none">
<path d="M123 353 c-18 -7 -16 -52 2 -59 18 -7 45 12 45 32 0 16 -30 33 -47
27z"/>
<path d="M10 310 c-13 -25 -9 -95 5 -95 6 0 11 21 13 48 3 45 5 47 33 47 16 0
29 5 29 10 0 6 -16 10 -35 10 -24 0 -37 -6 -45 -20z"/>
<path d="M190 321 c0 -6 38 -11 88 -13 l87 -3 3 -35 c5 -61 8 -64 47 -40 l35
22 0 -46 c0 -50 -3 -52 -40 -31 -30 17 -40 18 -40 5 0 -8 90 -60 105 -60 3 0
5 38 5 85 l0 85 -40 -20 c-21 -11 -41 -20 -44 -20 -3 0 -6 17 -8 38 l-3 37
-97 3 c-61 2 -98 -1 -98 -7z"/>
<path d="M50 205 c0 -54 0 -55 30 -55 17 0 30 5 30 10 0 6 -9 10 -20 10 -17 0
-20 7 -20 45 0 25 -4 45 -10 45 -5 0 -10 -25 -10 -55z"/>
<path d="M130 205 c0 -30 5 -55 10 -55 6 0 10 25 10 55 0 30 -4 55 -10 55 -5
0 -10 -25 -10 -55z"/>
<path d="M179 208 c10 -28 23 -54 29 -56 11 -3 52 76 52 100 0 22 -24 0 -36
-33 l-12 -34 -11 28 c-6 16 -11 33 -11 38 0 5 -6 9 -14 9 -12 0 -12 -8 3 -52z"/>
<path d="M280 205 c0 -54 0 -55 30 -55 17 0 30 5 30 10 0 6 -9 10 -20 10 -11
0 -20 7 -20 15 0 8 9 15 20 15 11 0 20 5 20 10 0 6 -9 10 -20 10 -11 0 -20 5
-20 10 0 6 9 10 20 10 11 0 20 5 20 10 0 6 -13 10 -30 10 -30 0 -30 -1 -30
-55z"/>
</g>
</svg>
